<svg width="40" height="40" viewBox="0 0 100 100" xmlns="http://www.w3.org/2000/svg">
  <defs>
    <linearGradient id="gradient1" x1="0%" y1="0%" x2="100%" y2="100%">
      <stop offset="0%" style="stop-color:#4F46E5;stop-opacity:1" />
      <stop offset="50%" style="stop-color:#7C3AED;stop-opacity:1" />
      <stop offset="100%" style="stop-color:#A855F7;stop-opacity:1" />
    </linearGradient>
    <linearGradient id="gradient2" x1="0%" y1="0%" x2="100%" y2="100%">
      <stop offset="0%" style="stop-color:#1E40AF;stop-opacity:1" />
      <stop offset="50%" style="stop-color:#3B82F6;stop-opacity:1" />
      <stop offset="100%" style="stop-color:#6366F1;stop-opacity:1" />
    </linearGradient>
  </defs>
  
  <!-- Outer circle -->
  <circle cx="50" cy="50" r="48" fill="none" stroke="url(#gradient1)" stroke-width="4"/>
  
  <!-- T2 integrated design -->
  <!-- T shape -->
  <path d="M25 25 L75 25 L75 35 L60 35 L60 75 L50 75 L50 35 L25 35 Z" fill="url(#gradient2)"/>
  
  <!-- 2 shape -->
  <path d="M30 45 Q30 40 35 40 L65 40 Q70 40 70 45 Q70 50 65 50 L40 50 L70 75 L30 75 Z" fill="url(#gradient1)"/>
  
  <!-- C arc -->
  <path d="M75 30 Q85 30 85 40 L85 60 Q85 70 75 70" fill="none" stroke="url(#gradient1)" stroke-width="6" stroke-linecap="round"/>
  
  <!-- Decorative elements -->
  <circle cx="20" cy="20" r="3" fill="url(#gradient1)" opacity="0.7"/>
  <circle cx="80" cy="80" r="3" fill="url(#gradient2)" opacity="0.7"/>
  <circle cx="85" cy="15" r="2" fill="url(#gradient1)" opacity="0.5"/>
</svg>