<svg xmlns="http://www.w3.org/2000/svg" width="615" height="617" viewBox="0 0 615 617" version="1.1">
	<path d="M -0 308.502 L -0 617.003 307.750 616.752 L 615.500 616.500 615.752 308.250 L 616.003 -0 308.002 -0 L 0 0 -0 308.502 M 0.494 309 C 0.494 478.675, 0.609 548.088, 0.750 463.250 C 0.891 378.413, 0.891 239.588, 0.750 154.750 C 0.609 69.913, 0.494 139.325, 0.494 309 M 2 308.500 L 2 614 307.500 614 L 613 614 613 308.500 L 613 3 307.500 3 L 2 3 2 308.500 M 281.500 158.022 C 249.302 163.986, 225.376 176.099, 202.640 197.947 C 195.568 204.743, 186 215.942, 186 217.424 C 186 217.741, 193.224 218, 202.054 218 L 218.109 218 224.971 212.094 C 244.985 194.869, 265.559 185.881, 293.215 182.284 C 304.313 180.840, 307.581 180.784, 317.463 181.868 C 344.303 184.812, 365.387 193.243, 384.891 208.830 C 391.641 214.225, 392.812 214.788, 398.391 215.326 C 407.294 216.184, 418.802 219.386, 427.607 223.454 C 431.847 225.413, 435.458 226.875, 435.631 226.703 C 436.253 226.080, 421.712 207.367, 416.170 201.659 C 387.289 171.908, 348.483 155.857, 306 156.090 C 296.471 156.143, 288.072 156.805, 281.500 158.022 M 382.763 223.975 C 373.067 225.726, 360.831 230.775, 351.796 236.754 C 348.406 238.997, 348.121 239.482, 349.364 240.897 C 353.272 245.346, 357.901 257.811, 359.499 268.185 L 360.066 271.870 366.533 266.975 C 373.396 261.780, 383.249 258, 389.924 258 C 394.834 258, 403.415 260.605, 407.965 263.478 C 409.977 264.748, 413.707 268.104, 416.253 270.936 L 420.882 276.085 434.916 266.793 C 442.634 261.682, 448.954 257.050, 448.959 256.500 C 448.978 254.683, 437.071 241.103, 431.737 236.858 C 419.336 226.988, 397.660 221.286, 382.763 223.975 M 144.115 242.500 L 160.729 259 187.865 259 L 215 259 215 317.127 L 215 375.255 232.250 358.750 L 249.500 342.246 249.761 300.623 L 250.022 259 273.829 259 C 300.233 259, 305.140 259.777, 310.658 264.828 C 314.887 268.700, 318 275.052, 318 279.810 C 318 285.604, 314.508 289.616, 294.773 306.500 L 277.240 321.500 263.033 348.330 C 255.220 363.087, 249.018 375.351, 249.251 375.584 C 249.484 375.817, 303.075 375.894, 368.341 375.754 L 487.008 375.500 472.271 363 C 444.002 339.020, 425.908 324, 425.291 324 C 424.950 324, 421.835 326.722, 418.371 330.048 C 414.182 334.071, 409.465 337.336, 404.286 339.798 L 396.500 343.500 347 343.731 L 297.500 343.961 300.976 341.231 C 331.378 317.345, 340.920 308.080, 346.475 297.050 C 351.577 286.919, 352.721 278.886, 350.736 267.127 C 347.765 249.528, 339.186 237.586, 324.280 230.302 L 316.500 226.500 222 226.250 L 127.500 226 144.115 242.500 M 161.613 268.750 C 157.595 282.230, 156.744 314.109, 159.964 330.502 C 164.555 353.874, 169.796 366.380, 183.419 386.466 C 204.597 417.692, 238.019 439.407, 276.630 447.027 C 291.921 450.044, 317.021 450.056, 332.235 447.053 C 352.216 443.109, 369.184 436.116, 386.108 424.851 C 396.161 418.160, 414.065 401.065, 422.347 390.250 L 427.133 384 409.779 384 L 392.425 384 387.462 389.073 C 371.386 405.507, 346.547 418.263, 322.500 422.433 C 311.095 424.411, 292.782 424.440, 281.643 422.497 C 239.874 415.213, 204.251 384.922, 189.657 344.280 C 181.927 322.752, 180.708 292.934, 186.599 269.463 L 187.217 267 174.676 267 C 163.597 267, 162.074 267.204, 161.613 268.750" stroke="none" fill="#000000" fill-rule="evenodd"/>
</svg>